<svg width="40" height="40" viewBox="0 0 40 40" fill="none" xmlns="http://www.w3.org/2000/svg">
<path d="M22.5 2.5C22.5 1.11719 21.3828 0 20 0C18.6172 0 17.5 1.11719 17.5 2.5V20C17.5 21.3828 18.6172 22.5 20 22.5C21.3828 22.5 22.5 21.3828 22.5 20V2.5ZM11.2109 9.42187C12.2734 8.53906 12.4141 6.96094 11.5313 5.89844C10.6484 4.83594 9.07031 4.69531 8.00781 5.57813C3.88281 9.01563 1.25 14.2031 1.25 20C1.25 30.3516 9.64844 38.75 20 38.75C30.3516 38.75 38.75 30.3516 38.75 20C38.75 14.2031 36.1094 9.01563 31.9844 5.57813C30.9219 4.69531 29.3437 4.84375 28.4609 5.89844C27.5781 6.95312 27.7266 8.53906 28.7812 9.42187C31.8203 11.9453 33.7422 15.75 33.7422 20C33.7422 27.5937 27.5859 33.75 19.9922 33.75C12.3984 33.75 6.24219 27.5937 6.24219 20C6.24219 15.75 8.17187 11.9453 11.2031 9.42187H11.2109Z" fill="#CDCACD"/>
</svg>
